<svg width="520" height="120" viewBox="0 0 520 120" fill="none" xmlns="http://www.w3.org/2000/svg">
  <defs>
    <filter id="logo-glow" x="-40%" y="-40%" width="180%" height="180%">
      <feGaussianBlur stdDeviation="7" result="softGlow" />
      <feMerge>
        <feMergeNode in="softGlow" />
        <feMergeNode in="SourceGraphic" />
      </feMerge>
    </filter>
  </defs>
  <path d="M148 22C171 7 204 8 217 23C223 29 222 36 214 39" fill="none" stroke="#6C0813" stroke-width="4" stroke-linecap="round" stroke-linejoin="round" />
  <path d="M36 42H280" fill="none" stroke="#6C0813" stroke-width="4" stroke-linecap="round" />
  <path d="M112 92C146 110 194 112 248 95" fill="none" stroke="#6C0813" stroke-width="4.5" stroke-linecap="round" stroke-linejoin="round" />
  <text x="28" y="83" fill="#6C0813" font-family="'Tiro Devanagari Hindi', 'Noto Serif Devanagari', serif" font-size="83" font-weight="700" letter-spacing="-0.01em">
    बनिया
  </text>
  <text x="266" y="84" fill="#6C0813" font-family="'Cormorant Garamond', Georgia, serif" font-size="72" font-weight="600" letter-spacing="-0.03em">
    Dost.AI
  </text>
  <g transform="translate(438 28)">
    <circle cx="26" cy="30" r="24" fill="#EAB29C" opacity="0.14" filter="url(#logo-glow)" />
    <path d="M0 12H18" stroke="#EAB29C" stroke-width="2.4" stroke-linecap="round" />
    <path d="M0 30H18" stroke="#EAB29C" stroke-width="2.4" stroke-linecap="round" />
    <path d="M0 48H18" stroke="#EAB29C" stroke-width="2.4" stroke-linecap="round" />
    <path d="M18 12H33" stroke="#EAB29C" stroke-width="2.4" stroke-linecap="round" />
    <path d="M18 30H37" stroke="#EAB29C" stroke-width="2.4" stroke-linecap="round" />
    <path d="M18 48H33" stroke="#EAB29C" stroke-width="2.4" stroke-linecap="round" />
    <path d="M18 12L31 2" stroke="#EAB29C" stroke-width="2.4" stroke-linecap="round" />
    <path d="M18 48L31 58" stroke="#EAB29C" stroke-width="2.4" stroke-linecap="round" />
    <path d="M33 12L48 12" stroke="#EAB29C" stroke-width="2.4" stroke-linecap="round" />
    <path d="M37 30L54 30" stroke="#EAB29C" stroke-width="2.4" stroke-linecap="round" />
    <path d="M33 48L48 48" stroke="#EAB29C" stroke-width="2.4" stroke-linecap="round" />
    <circle cx="51" cy="12" r="3.1" fill="#F7C9B7" />
    <circle cx="57" cy="30" r="3.1" fill="#F7C9B7" />
    <circle cx="51" cy="48" r="3.1" fill="#F7C9B7" />
    <circle cx="34" cy="2" r="2.8" fill="#F7C9B7" />
    <circle cx="34" cy="58" r="2.8" fill="#F7C9B7" />
  </g>
</svg>
